{
  "source": "C:\\Users\\Peter\\Desktop\\stuff\\MIUN\\quantitative_research\\video_compression\\videos\\BVI-HD\\BVI-HD_CDVL_videos\\ORIG\\TreeGrassFamily_1920x1080_30fps.mp4",
  "output": "C:\\Users\\Peter\\Desktop\\stuff\\MIUN\\quantitative_research\\video_compression\\compressed_videos\\BVI-HD\\vp9\\3\\TreeGrassFamily_1920x1080_30fps_vp9.webm",
  "codec": "vp9",
  "ok": "Input #0, mov,mp4,m4a,3gp,3g2,mj2, from 'C:\\Users\\Peter\\Desktop\\stuff\\MIUN\\quantitative_research\\video_compression\\videos\\BVI-HD\\BVI-HD_CDVL_videos\\ORIG\\TreeGrassFamily_1920x1080_30fps.mp4':\n  Metadata:\n    major_brand     : isom\n    minor_version   : 512\n    compatible_brands: isomiso2avc1mp41\n    encoder         : Lavf54.28.101\n  Duration: 00:00:05.00, start: 0.000000, bitrate: 331787 kb/s\n  Stream #0:0[0x1](und): Video: h264 (High 4:4:4 Predictive) (avc1 / 0x31637661), yuv420p(progressive), 1920x1080, 331784 kb/s, 30 fps, 30 tbr, 30 tbn (default)\n    Metadata:\n      handler_name    : VideoHandler\n      vendor_id       : [0][0][0][0]\n[out#0/webm @ 00000216929e0b80] Codec AVOption b:a (set bitrate (in bits/s)) has not been used for any stream. The most likely reason is either wrong type (e.g. a video option with no video streams) or that it is a private option of some decoder which was not actually used for any stream.\nStream mapping:\n  Stream #0:0 -> #0:0 (h264 (native) -> vp9 (libvpx-vp9))\nPress [q] to stop, [?] for help\n[libvpx-vp9 @ 00000216935007c0] v1.15.2-100-g40561f514\nOutput #0, webm, to 'C:\\Users\\Peter\\Desktop\\stuff\\MIUN\\quantitative_research\\video_compression\\compressed_videos\\BVI-HD\\vp9\\3\\TreeGrassFamily_1920x1080_30fps_vp9.webm':\n  Metadata:\n    major_brand     : isom\n    minor_version   : 512\n    compatible_brands: isomiso2avc1mp41\n    encoder         : Lavf62.3.100\n  Stream #0:0(und): Video: vp9, yuv420p(tv, progressive), 1920x1080, q=2-31, 3000 kb/s, 30 fps, 1k tbn (default)\n    Metadata:\n      encoder         : Lavc62.11.100 libvpx-vp9\n      handler_name    : VideoHandler\n      vendor_id       : [0][0][0][0]\n    Side data:\n      cpb: bitrate max/min/avg: 0/0/0 buffer size: 3000000 vbv_delay: N/A\nframe=    0 fps=0.0 q=0.0 size=       0KiB time=N/A bitrate=N/A speed=N/A elapsed=0:00:00.52    \nframe=    2 fps=1.7 q=31.0 size=       1KiB time=00:00:00.06 bitrate=  76.1kbits/s speed=0.0573x elapsed=0:00:01.16    \nframe=    6 fps=3.5 q=59.0 size=       1KiB time=00:00:00.20 bitrate=  25.4kbits/s speed=0.118x elapsed=0:00:01.69    \nframe=   10 fps=4.5 q=58.0 size=       1KiB time=00:00:00.33 bitrate=  15.2kbits/s speed=0.149x elapsed=0:00:02.23    \nframe=   14 fps=5.1 q=58.0 size=       1KiB time=00:00:00.46 bitrate=  10.9kbits/s speed=0.168x elapsed=0:00:02.77    \nframe=   17 fps=5.2 q=58.0 size=       1KiB time=00:00:00.56 bitrate=   9.0kbits/s speed=0.173x elapsed=0:00:03.27    \nframe=   20 fps=5.3 q=58.0 size=       1KiB time=00:00:00.66 bitrate=   7.6kbits/s speed=0.175x elapsed=0:00:03.80    \nframe=   24 fps=5.6 q=58.0 size=       1KiB time=00:00:00.80 bitrate=   6.3kbits/s speed=0.185x elapsed=0:00:04.31    \nframe=   28 fps=5.8 q=59.0 size=       1KiB time=00:00:00.90 bitrate=   5.6kbits/s speed=0.185x elapsed=0:00:04.85    \nframe=   30 fps=5.5 q=58.0 size=       1KiB time=00:00:01.00 bitrate=   5.1kbits/s speed=0.185x elapsed=0:00:05.40    \nframe=   34 fps=5.7 q=58.0 size=       1KiB time=00:00:01.13 bitrate=   4.5kbits/s speed=0.192x elapsed=0:00:05.91    \nframe=   38 fps=5.9 q=59.0 size=       1KiB time=00:00:01.26 bitrate=   4.0kbits/s speed=0.196x elapsed=0:00:06.45    \nframe=   40 fps=5.7 q=59.0 size=       1KiB time=00:00:01.33 bitrate=   3.8kbits/s speed=0.191x elapsed=0:00:06.98    \nframe=   45 fps=6.0 q=59.0 size=       1KiB time=00:00:01.50 bitrate=   3.4kbits/s speed= 0.2x elapsed=0:00:07.50    \nframe=   48 fps=6.0 q=60.0 size=       1KiB time=00:00:01.60 bitrate=   3.2kbits/s speed=0.199x elapsed=0:00:08.04    \nframe=   52 fps=6.1 q=59.0 size=       1KiB time=00:00:01.73 bitrate=   2.9kbits/s speed=0.202x elapsed=0:00:08.57    \nframe=   55 fps=6.0 q=59.0 size=       1KiB time=00:00:01.83 bitrate=   2.8kbits/s speed=0.201x elapsed=0:00:09.11    \nframe=   58 fps=6.0 q=60.0 size=       1KiB time=00:00:01.93 bitrate=   2.6kbits/s speed= 0.2x elapsed=0:00:09.65    \nframe=   60 fps=5.9 q=60.0 size=       1KiB time=00:00:02.00 bitrate=   2.5kbits/s speed=0.196x elapsed=0:00:10.20    \nframe=   63 fps=5.9 q=57.0 size=       1KiB time=00:00:02.10 bitrate=   2.4kbits/s speed=0.196x elapsed=0:00:10.74    \nframe=   65 fps=5.7 q=59.0 size=       1KiB time=00:00:02.16 bitrate=   2.3kbits/s speed=0.19x elapsed=0:00:11.40    \nframe=   67 fps=5.6 q=59.0 size=       1KiB time=00:00:02.23 bitrate=   2.3kbits/s speed=0.186x elapsed=0:00:11.98    \nframe=   69 fps=5.5 q=59.0 size=       1KiB time=00:00:02.30 bitrate=   2.2kbits/s speed=0.183x elapsed=0:00:12.54    \nframe=   70 fps=5.3 q=60.0 size=       1KiB time=00:00:02.33 bitrate=   2.2kbits/s speed=0.177x elapsed=0:00:13.21    \nframe=   72 fps=5.2 q=59.0 size=       1KiB time=00:00:02.40 bitrate=   2.1kbits/s speed=0.174x elapsed=0:00:13.82    \nframe=   76 fps=5.3 q=60.0 size=       1KiB time=00:00:02.53 bitrate=   2.0kbits/s speed=0.177x elapsed=0:00:14.35    \nframe=   79 fps=5.3 q=60.0 size=       1KiB time=00:00:02.63 bitrate=   1.9kbits/s speed=0.177x elapsed=0:00:14.89    \nframe=   80 fps=5.2 q=60.0 size=       1KiB time=00:00:02.66 bitrate=   1.9kbits/s speed=0.173x elapsed=0:00:15.44    \nframe=   83 fps=5.2 q=58.0 size=       1KiB time=00:00:02.76 bitrate=   1.8kbits/s speed=0.173x elapsed=0:00:15.97    \nframe=   86 fps=5.2 q=60.0 size=       1KiB time=00:00:02.86 bitrate=   1.8kbits/s speed=0.173x elapsed=0:00:16.53    \nframe=   88 fps=5.1 q=60.0 size=       1KiB time=00:00:02.93 bitrate=   1.7kbits/s speed=0.172x elapsed=0:00:17.09    \nframe=   90 fps=5.1 q=60.0 size=       1KiB time=00:00:03.00 bitrate=   1.7kbits/s speed=0.169x elapsed=0:00:17.71    \nframe=   92 fps=5.0 q=60.0 size=       1KiB time=00:00:03.06 bitrate=   1.7kbits/s speed=0.167x elapsed=0:00:18.37    \nframe=   94 fps=4.9 q=60.0 size=       1KiB time=00:00:03.13 bitrate=   1.6kbits/s speed=0.165x elapsed=0:00:19.01    \nframe=   96 fps=4.9 q=60.0 size=       1KiB time=00:00:03.20 bitrate=   1.6kbits/s speed=0.164x elapsed=0:00:19.54    \nframe=   98 fps=4.9 q=60.0 size=       1KiB time=00:00:03.26 bitrate=   1.6kbits/s speed=0.163x elapsed=0:00:20.08    \nframe=  100 fps=4.8 q=61.0 size=       1KiB time=00:00:03.33 bitrate=   1.5kbits/s speed=0.161x elapsed=0:00:20.64    \nframe=  101 fps=4.7 q=38.0 size=       1KiB time=00:00:03.36 bitrate=   1.5kbits/s speed=0.158x elapsed=0:00:21.27    \nframe=  103 fps=4.7 q=58.0 size=       1KiB time=00:00:03.43 bitrate=   1.5kbits/s speed=0.157x elapsed=0:00:21.86    \nframe=  104 fps=4.6 q=60.0 size=       1KiB time=00:00:03.46 bitrate=   1.5kbits/s speed=0.154x elapsed=0:00:22.48    \nframe=  106 fps=4.6 q=61.0 size=       1KiB time=00:00:03.53 bitrate=   1.4kbits/s speed=0.153x elapsed=0:00:23.03    \nframe=  108 fps=4.6 q=61.0 size=       1KiB time=00:00:03.60 bitrate=   1.4kbits/s speed=0.152x elapsed=0:00:23.67    \nframe=  110 fps=4.5 q=61.0 size=       1KiB time=00:00:03.66 bitrate=   1.4kbits/s speed=0.151x elapsed=0:00:24.26    \nframe=  112 fps=4.5 q=60.0 size=       1KiB time=00:00:03.73 bitrate=   1.4kbits/s speed=0.15x elapsed=0:00:24.90    \nframe=  114 fps=4.5 q=60.0 size=       1KiB time=00:00:03.80 bitrate=   1.3kbits/s speed=0.149x elapsed=0:00:25.53    \nframe=  115 fps=4.4 q=60.0 size=       1KiB time=00:00:03.83 bitrate=   1.3kbits/s speed=0.147x elapsed=0:00:26.08    \nframe=  117 fps=4.4 q=60.0 size=       1KiB time=00:00:03.90 bitrate=   1.3kbits/s speed=0.146x elapsed=0:00:26.67    \nframe=  119 fps=4.4 q=60.0 size=       1KiB time=00:00:03.96 bitrate=   1.3kbits/s speed=0.146x elapsed=0:00:27.20    \nframe=  121 fps=4.4 q=39.0 size=       1KiB time=00:00:04.03 bitrate=   1.3kbits/s speed=0.145x elapsed=0:00:27.73    \nframe=  123 fps=4.4 q=58.0 size=       1KiB time=00:00:04.10 bitrate=   1.2kbits/s speed=0.145x elapsed=0:00:28.26    \nframe=  125 fps=4.3 q=60.0 size=       1KiB time=00:00:04.16 bitrate=   1.2kbits/s speed=0.145x elapsed=0:00:28.79    \nframe=  126 fps=4.3 q=61.0 size=       1KiB time=00:00:04.20 bitrate=   1.2kbits/s speed=0.143x elapsed=0:00:29.37    \nframe=  126 fps=4.2 q=61.0 size=       1KiB time=00:00:04.20 bitrate=   1.2kbits/s speed=0.14x elapsed=0:00:29.97    \nframe=  126 fps=4.1 q=61.0 size=       1KiB time=00:00:04.20 bitrate=   1.2kbits/s speed=0.137x elapsed=0:00:30.55    \nframe=  126 fps=4.1 q=61.0 size=       1KiB time=00:00:04.20 bitrate=   1.2kbits/s speed=0.135x elapsed=0:00:31.05    \nframe=  126 fps=4.0 q=61.0 size=       1KiB time=00:00:04.20 bitrate=   1.2kbits/s speed=0.133x elapsed=0:00:31.57    \nframe=  126 fps=3.9 q=61.0 size=       1KiB time=00:00:04.20 bitrate=   1.2kbits/s speed=0.131x elapsed=0:00:32.10    \nframe=  126 fps=3.9 q=61.0 size=       1KiB time=00:00:04.20 bitrate=   1.2kbits/s speed=0.129x elapsed=0:00:32.67    \nframe=  126 fps=3.8 q=61.0 size=       1KiB time=00:00:04.20 bitrate=   1.2kbits/s speed=0.126x elapsed=0:00:33.22    \nframe=  126 fps=3.7 q=61.0 size=       1KiB time=00:00:04.20 bitrate=   1.2kbits/s speed=0.124x elapsed=0:00:33.76    \nframe=  126 fps=3.7 q=61.0 size=       1KiB time=00:00:04.20 bitrate=   1.2kbits/s speed=0.122x elapsed=0:00:34.29    \n[out#0/webm @ 00000216929e0b80] video:2314KiB audio:0KiB subtitle:0KiB other streams:0KiB global headers:0KiB muxing overhead: 0.074413%\nframe=  150 fps=4.4 q=60.0 Lsize=    2315KiB time=00:00:05.00 bitrate=3793.5kbits/s speed=0.145x elapsed=0:00:34.38    \n",
  "seconds": 34.76270270347595,
  "probe_out": {}
}